<?xml version="1.0" encoding="utf-8" standalone="no"?>
<!DOCTYPE svg PUBLIC "-//W3C//DTD SVG 1.1//EN"
  "http://www.w3.org/Graphics/SVG/1.1/DTD/svg11.dtd">
<!-- Created with matplotlib (http://matplotlib.org/) -->
<svg height="204pt" version="1.1" viewBox="0 0 347 204" width="347pt" xmlns="http://www.w3.org/2000/svg" xmlns:xlink="http://www.w3.org/1999/xlink">
 <defs>
  <style type="text/css">
*{stroke-linecap:butt;stroke-linejoin:round;stroke-miterlimit:100000;}
  </style>
 </defs>
 <g id="figure_1">
  <g id="patch_1">
   <path d="M 0 204.264932 
L 347.545385 204.264932 
L 347.545385 0 
L 0 0 
z
" style="fill:#ffffff;"/>
  </g>
  <g id="axes_1">
   <g id="patch_2">
    <path d="M 7.2 195.829605 
L 340.345385 195.829605 
L 340.345385 8.435326 
L 7.2 8.435326 
z
" style="fill:#ffffff;"/>
   </g>
   <g id="line2d_1">
    <path clip-path="url(#p2ccdd35931)" d="M 13.606642 112.142844 
L 19.011532 130.924883 
L 21.853259 140.158308 
L 24.510565 148.090148 
L 26.699665 153.973409 
L 28.817427 159.006237 
L 30.815997 163.090397 
L 32.274261 165.62913 
L 33.813974 167.882141 
L 35.35615 169.68041 
L 36.512781 170.719039 
L 37.649432 171.475501 
L 38.73626 171.950698 
L 39.957501 172.192845 
L 40.816466 172.177484 
L 41.916658 171.933873 
L 43.01685 171.439753 
L 44.354399 170.504696 
L 45.620211 169.286869 
L 46.8457 167.805845 
L 47.900591 166.298945 
L 49.191874 164.171056 
L 51.126539 160.425326 
L 53.157887 155.820677 
L 55.246575 150.436796 
L 57.552738 143.8248 
L 60.337885 135.07495 
L 63.249358 125.275235 
L 74.489545 86.50626 
L 77.114218 78.45583 
L 79.653529 71.428647 
L 81.732184 66.345199 
L 83.889883 61.793227 
L 85.637087 58.698197 
L 86.88441 56.832294 
L 88.096121 55.304784 
L 89.189698 54.173979 
L 90.434192 53.17926 
L 91.530404 52.564747 
L 92.725926 52.177131 
L 93.75236 52.080984 
L 94.986081 52.255258 
L 96.219801 52.745018 
L 97.536234 53.612596 
L 98.253996 54.233925 
L 99.638719 55.723321 
L 101.023441 57.5871 
L 102.715944 60.355354 
L 104.568931 63.973509 
L 106.215517 67.670214 
L 108.45284 73.354419 
L 110.463254 79.037871 
L 112.888998 86.503732 
L 115.973325 96.728624 
L 122.594102 119.931958 
L 126.333592 132.743484 
L 129.384365 142.486375 
L 132.11504 150.388532 
L 134.130775 155.600086 
L 136.221509 160.359476 
L 138.232596 164.250574 
L 140.044063 167.132828 
L 141.63796 169.15356 
L 142.812809 170.323024 
L 143.987657 171.214537 
L 145.27689 171.867969 
L 146.503913 172.170803 
L 147.588455 172.178057 
L 148.672998 171.940882 
L 149.396026 171.647407 
L 150.495204 170.995177 
L 151.914493 169.789439 
L 153.013012 168.579789 
L 154.223493 166.974077 
L 155.433975 165.09029 
L 156.99015 162.275518 
L 158.929825 158.181999 
L 160.965197 153.243381 
L 163.352384 146.706471 
L 165.48258 140.294195 
L 168.837939 129.339631 
L 172.431056 116.879654 
L 179.675003 91.699225 
L 182.613947 82.285911 
L 184.723663 76.062467 
L 187.238128 69.377879 
L 189.447849 64.270534 
L 191.286109 60.634341 
L 193.021014 57.754223 
L 194.396977 55.871423 
L 195.846905 54.286571 
L 197.26825 53.14144 
L 198.584993 52.448524 
L 199.742962 52.135084 
L 200.761254 52.089576 
L 201.798643 52.264866 
L 203.093212 52.796318 
L 204.149896 53.485469 
L 205.20658 54.401333 
L 206.298373 55.581994 
L 207.460381 57.094823 
L 209.021521 59.530829 
L 210.68794 62.620096 
L 212.431284 66.360677 
L 214.219714 70.697818 
L 216.498234 76.880872 
L 219.051336 84.555257 
L 222.130605 94.621188 
L 225.567586 106.518178 
L 232.228423 129.787097 
L 235.300967 139.823162 
L 238.104335 148.200581 
L 239.960221 153.221083 
L 242.040799 158.264867 
L 243.941714 162.271227 
L 245.425502 164.96532 
L 247.129918 167.562263 
L 248.72621 169.489771 
L 250.068745 170.72 
L 251.393152 171.575623 
L 252.53026 172.02252 
L 253.633424 172.199974 
L 254.719616 172.127523 
L 255.805809 171.810104 
L 257.086652 171.12288 
L 257.782574 170.608756 
L 259.114694 169.352079 
L 260.446814 167.744059 
L 262.08865 165.293626 
L 263.780856 162.249538 
L 265.797343 157.976729 
L 267.305592 154.355838 
L 269.331974 148.973475 
L 271.979565 141.165686 
L 274.591034 132.774827 
L 278.381347 119.786917 
L 286.625677 91.124353 
L 289.450913 82.103324 
L 292.128034 74.315803 
L 294.023223 69.358705 
L 296.087824 64.565348 
L 297.767012 61.181073 
L 299.542101 58.144681 
L 301.292026 55.72735 
L 302.623587 54.287221 
L 303.630999 53.433173 
L 304.638412 52.785377 
L 305.940703 52.257225 
L 307.242994 52.080575 
L 308.064666 52.150527 
L 309.277517 52.509893 
L 310.400582 53.113451 
L 311.523646 53.974712 
L 313.0405 55.540213 
L 314.441092 57.386226 
L 316.188484 60.208817 
L 317.701988 63.098197 
L 319.546725 67.143098 
L 321.881069 73.014131 
L 323.871171 78.606151 
L 326.356676 86.22583 
L 329.6969 97.306126 
L 333.938743 112.142844 
L 333.938743 112.142844 
" style="fill:none;stroke:#000000;stroke-linecap:square;"/>
   </g>
   <g id="patch_3">
    <path d="M 7.2 32.059819 
L 340.345385 32.059819 
" style="fill:none;stroke:#000000;stroke-linecap:square;stroke-linejoin:miter;stroke-width:0.8;"/>
   </g>
   <g id="patch_4">
    <path d="M 66.995325 195.829605 
L 66.995325 8.435326 
" style="fill:none;stroke:#000000;stroke-linecap:square;stroke-linejoin:miter;stroke-width:0.8;"/>
   </g>
   <g id="matplotlib.axis_1">
    <g id="xtick_1">
     <g id="line2d_2">
      <path d="M 13.606642 195.829605 
L 13.606642 8.435326 
" style="fill:none;stroke:#000000;stroke-linecap:square;stroke-width:0.5;"/>
     </g>
     <g id="line2d_3">
      <defs>
       <path d="M 0 0 
L 0 -4 
" id="mb5a025ff3b" style="stroke:#000000;stroke-width:0.5;"/>
      </defs>
      <g>
       <use style="stroke:#000000;stroke-width:0.5;" x="13.6066420118" xlink:href="#mb5a025ff3b" y="32.059818787"/>
      </g>
     </g>
     <g id="text_1">
      <!-- -2 -->
      <defs>
       <path d="M 19.1875 8.296875 
L 53.609375 8.296875 
L 53.609375 0 
L 7.328125 0 
L 7.328125 8.296875 
Q 12.9375 14.109375 22.625 23.890625 
Q 32.328125 33.6875 34.8125 36.53125 
Q 39.546875 41.84375 41.421875 45.53125 
Q 43.3125 49.21875 43.3125 52.78125 
Q 43.3125 58.59375 39.234375 62.25 
Q 35.15625 65.921875 28.609375 65.921875 
Q 23.96875 65.921875 18.8125 64.3125 
Q 13.671875 62.703125 7.8125 59.421875 
L 7.8125 69.390625 
Q 13.765625 71.78125 18.9375 73 
Q 24.125 74.21875 28.421875 74.21875 
Q 39.75 74.21875 46.484375 68.546875 
Q 53.21875 62.890625 53.21875 53.421875 
Q 53.21875 48.921875 51.53125 44.890625 
Q 49.859375 40.875 45.40625 35.40625 
Q 44.1875 33.984375 37.640625 27.21875 
Q 31.109375 20.453125 19.1875 8.296875 
" id="BitstreamVeraSans-Roman-32"/>
       <path d="M 4.890625 31.390625 
L 31.203125 31.390625 
L 31.203125 23.390625 
L 4.890625 23.390625 
z
" id="BitstreamVeraSans-Roman-2d"/>
      </defs>
      <g transform="translate(8.62148576183 43.658256287)scale(0.1 -0.1)">
       <use xlink:href="#BitstreamVeraSans-Roman-2d"/>
       <use x="36.083984375" xlink:href="#BitstreamVeraSans-Roman-32"/>
      </g>
     </g>
    </g>
    <g id="xtick_2">
     <g id="line2d_4">
      <path d="M 40.300984 195.829605 
L 40.300984 8.435326 
" style="fill:none;stroke:#000000;stroke-linecap:square;stroke-width:0.5;"/>
     </g>
     <g id="line2d_5">
      <g>
       <use style="stroke:#000000;stroke-width:0.5;" x="40.3009837278" xlink:href="#mb5a025ff3b" y="32.059818787"/>
      </g>
     </g>
     <g id="text_2">
      <!-- -1 -->
      <defs>
       <path d="M 12.40625 8.296875 
L 28.515625 8.296875 
L 28.515625 63.921875 
L 10.984375 60.40625 
L 10.984375 69.390625 
L 28.421875 72.90625 
L 38.28125 72.90625 
L 38.28125 8.296875 
L 54.390625 8.296875 
L 54.390625 0 
L 12.40625 0 
z
" id="BitstreamVeraSans-Roman-31"/>
      </defs>
      <g transform="translate(35.3158274778 43.658256287)scale(0.1 -0.1)">
       <use xlink:href="#BitstreamVeraSans-Roman-2d"/>
       <use x="36.083984375" xlink:href="#BitstreamVeraSans-Roman-31"/>
      </g>
     </g>
    </g>
    <g id="xtick_3">
     <g id="line2d_6">
      <path d="M 66.995325 195.829605 
L 66.995325 8.435326 
" style="fill:none;stroke:#000000;stroke-linecap:square;stroke-width:0.5;"/>
     </g>
     <g id="line2d_7">
      <g>
       <use style="stroke:#000000;stroke-width:0.5;" x="66.9953254438" xlink:href="#mb5a025ff3b" y="32.059818787"/>
      </g>
     </g>
    </g>
    <g id="xtick_4">
     <g id="line2d_8">
      <path d="M 93.689667 195.829605 
L 93.689667 8.435326 
" style="fill:none;stroke:#000000;stroke-linecap:square;stroke-width:0.5;"/>
     </g>
     <g id="line2d_9">
      <g>
       <use style="stroke:#000000;stroke-width:0.5;" x="93.6896671598" xlink:href="#mb5a025ff3b" y="32.059818787"/>
      </g>
     </g>
     <g id="text_3">
      <!-- 1 -->
      <g transform="translate(90.5084171598 43.658256287)scale(0.1 -0.1)">
       <use xlink:href="#BitstreamVeraSans-Roman-31"/>
      </g>
     </g>
    </g>
    <g id="xtick_5">
     <g id="line2d_10">
      <path d="M 120.384009 195.829605 
L 120.384009 8.435326 
" style="fill:none;stroke:#000000;stroke-linecap:square;stroke-width:0.5;"/>
     </g>
     <g id="line2d_11">
      <g>
       <use style="stroke:#000000;stroke-width:0.5;" x="120.384008876" xlink:href="#mb5a025ff3b" y="32.059818787"/>
      </g>
     </g>
     <g id="text_4">
      <!-- 2 -->
      <g transform="translate(117.202758876 43.658256287)scale(0.1 -0.1)">
       <use xlink:href="#BitstreamVeraSans-Roman-32"/>
      </g>
     </g>
    </g>
    <g id="xtick_6">
     <g id="line2d_12">
      <path d="M 147.078351 195.829605 
L 147.078351 8.435326 
" style="fill:none;stroke:#000000;stroke-linecap:square;stroke-width:0.5;"/>
     </g>
     <g id="line2d_13">
      <g>
       <use style="stroke:#000000;stroke-width:0.5;" x="147.078350592" xlink:href="#mb5a025ff3b" y="32.059818787"/>
      </g>
     </g>
     <g id="text_5">
      <!-- 3 -->
      <defs>
       <path d="M 40.578125 39.3125 
Q 47.65625 37.796875 51.625 33 
Q 55.609375 28.21875 55.609375 21.1875 
Q 55.609375 10.40625 48.1875 4.484375 
Q 40.765625 -1.421875 27.09375 -1.421875 
Q 22.515625 -1.421875 17.65625 -0.515625 
Q 12.796875 0.390625 7.625 2.203125 
L 7.625 11.71875 
Q 11.71875 9.328125 16.59375 8.109375 
Q 21.484375 6.890625 26.8125 6.890625 
Q 36.078125 6.890625 40.9375 10.546875 
Q 45.796875 14.203125 45.796875 21.1875 
Q 45.796875 27.640625 41.28125 31.265625 
Q 36.765625 34.90625 28.71875 34.90625 
L 20.21875 34.90625 
L 20.21875 43.015625 
L 29.109375 43.015625 
Q 36.375 43.015625 40.234375 45.921875 
Q 44.09375 48.828125 44.09375 54.296875 
Q 44.09375 59.90625 40.109375 62.90625 
Q 36.140625 65.921875 28.71875 65.921875 
Q 24.65625 65.921875 20.015625 65.03125 
Q 15.375 64.15625 9.8125 62.3125 
L 9.8125 71.09375 
Q 15.4375 72.65625 20.34375 73.4375 
Q 25.25 74.21875 29.59375 74.21875 
Q 40.828125 74.21875 47.359375 69.109375 
Q 53.90625 64.015625 53.90625 55.328125 
Q 53.90625 49.265625 50.4375 45.09375 
Q 46.96875 40.921875 40.578125 39.3125 
" id="BitstreamVeraSans-Roman-33"/>
      </defs>
      <g transform="translate(143.897100592 43.658256287)scale(0.1 -0.1)">
       <use xlink:href="#BitstreamVeraSans-Roman-33"/>
      </g>
     </g>
    </g>
    <g id="xtick_7">
     <g id="line2d_14">
      <path d="M 173.772692 195.829605 
L 173.772692 8.435326 
" style="fill:none;stroke:#000000;stroke-linecap:square;stroke-width:0.5;"/>
     </g>
     <g id="line2d_15">
      <g>
       <use style="stroke:#000000;stroke-width:0.5;" x="173.772692308" xlink:href="#mb5a025ff3b" y="32.059818787"/>
      </g>
     </g>
     <g id="text_6">
      <!-- 4 -->
      <defs>
       <path d="M 37.796875 64.3125 
L 12.890625 25.390625 
L 37.796875 25.390625 
z
M 35.203125 72.90625 
L 47.609375 72.90625 
L 47.609375 25.390625 
L 58.015625 25.390625 
L 58.015625 17.1875 
L 47.609375 17.1875 
L 47.609375 0 
L 37.796875 0 
L 37.796875 17.1875 
L 4.890625 17.1875 
L 4.890625 26.703125 
z
" id="BitstreamVeraSans-Roman-34"/>
      </defs>
      <g transform="translate(170.591442308 43.658256287)scale(0.1 -0.1)">
       <use xlink:href="#BitstreamVeraSans-Roman-34"/>
      </g>
     </g>
    </g>
    <g id="xtick_8">
     <g id="line2d_16">
      <path d="M 200.467034 195.829605 
L 200.467034 8.435326 
" style="fill:none;stroke:#000000;stroke-linecap:square;stroke-width:0.5;"/>
     </g>
     <g id="line2d_17">
      <g>
       <use style="stroke:#000000;stroke-width:0.5;" x="200.467034024" xlink:href="#mb5a025ff3b" y="32.059818787"/>
      </g>
     </g>
     <g id="text_7">
      <!-- 5 -->
      <defs>
       <path d="M 10.796875 72.90625 
L 49.515625 72.90625 
L 49.515625 64.59375 
L 19.828125 64.59375 
L 19.828125 46.734375 
Q 21.96875 47.46875 24.109375 47.828125 
Q 26.265625 48.1875 28.421875 48.1875 
Q 40.625 48.1875 47.75 41.5 
Q 54.890625 34.8125 54.890625 23.390625 
Q 54.890625 11.625 47.5625 5.09375 
Q 40.234375 -1.421875 26.90625 -1.421875 
Q 22.3125 -1.421875 17.546875 -0.640625 
Q 12.796875 0.140625 7.71875 1.703125 
L 7.71875 11.625 
Q 12.109375 9.234375 16.796875 8.0625 
Q 21.484375 6.890625 26.703125 6.890625 
Q 35.15625 6.890625 40.078125 11.328125 
Q 45.015625 15.765625 45.015625 23.390625 
Q 45.015625 31 40.078125 35.4375 
Q 35.15625 39.890625 26.703125 39.890625 
Q 22.75 39.890625 18.8125 39.015625 
Q 14.890625 38.140625 10.796875 36.28125 
z
" id="BitstreamVeraSans-Roman-35"/>
      </defs>
      <g transform="translate(197.285784024 43.658256287)scale(0.1 -0.1)">
       <use xlink:href="#BitstreamVeraSans-Roman-35"/>
      </g>
     </g>
    </g>
    <g id="xtick_9">
     <g id="line2d_18">
      <path d="M 227.161376 195.829605 
L 227.161376 8.435326 
" style="fill:none;stroke:#000000;stroke-linecap:square;stroke-width:0.5;"/>
     </g>
     <g id="line2d_19">
      <g>
       <use style="stroke:#000000;stroke-width:0.5;" x="227.16137574" xlink:href="#mb5a025ff3b" y="32.059818787"/>
      </g>
     </g>
     <g id="text_8">
      <!-- 6 -->
      <defs>
       <path d="M 33.015625 40.375 
Q 26.375 40.375 22.484375 35.828125 
Q 18.609375 31.296875 18.609375 23.390625 
Q 18.609375 15.53125 22.484375 10.953125 
Q 26.375 6.390625 33.015625 6.390625 
Q 39.65625 6.390625 43.53125 10.953125 
Q 47.40625 15.53125 47.40625 23.390625 
Q 47.40625 31.296875 43.53125 35.828125 
Q 39.65625 40.375 33.015625 40.375 
M 52.59375 71.296875 
L 52.59375 62.3125 
Q 48.875 64.0625 45.09375 64.984375 
Q 41.3125 65.921875 37.59375 65.921875 
Q 27.828125 65.921875 22.671875 59.328125 
Q 17.53125 52.734375 16.796875 39.40625 
Q 19.671875 43.65625 24.015625 45.921875 
Q 28.375 48.1875 33.59375 48.1875 
Q 44.578125 48.1875 50.953125 41.515625 
Q 57.328125 34.859375 57.328125 23.390625 
Q 57.328125 12.15625 50.6875 5.359375 
Q 44.046875 -1.421875 33.015625 -1.421875 
Q 20.359375 -1.421875 13.671875 8.265625 
Q 6.984375 17.96875 6.984375 36.375 
Q 6.984375 53.65625 15.1875 63.9375 
Q 23.390625 74.21875 37.203125 74.21875 
Q 40.921875 74.21875 44.703125 73.484375 
Q 48.484375 72.75 52.59375 71.296875 
" id="BitstreamVeraSans-Roman-36"/>
      </defs>
      <g transform="translate(223.98012574 43.658256287)scale(0.1 -0.1)">
       <use xlink:href="#BitstreamVeraSans-Roman-36"/>
      </g>
     </g>
    </g>
    <g id="xtick_10">
     <g id="line2d_20">
      <path d="M 253.855717 195.829605 
L 253.855717 8.435326 
" style="fill:none;stroke:#000000;stroke-linecap:square;stroke-width:0.5;"/>
     </g>
     <g id="line2d_21">
      <g>
       <use style="stroke:#000000;stroke-width:0.5;" x="253.855717456" xlink:href="#mb5a025ff3b" y="32.059818787"/>
      </g>
     </g>
     <g id="text_9">
      <!-- 7 -->
      <defs>
       <path d="M 8.203125 72.90625 
L 55.078125 72.90625 
L 55.078125 68.703125 
L 28.609375 0 
L 18.3125 0 
L 43.21875 64.59375 
L 8.203125 64.59375 
z
" id="BitstreamVeraSans-Roman-37"/>
      </defs>
      <g transform="translate(250.674467456 43.658256287)scale(0.1 -0.1)">
       <use xlink:href="#BitstreamVeraSans-Roman-37"/>
      </g>
     </g>
    </g>
    <g id="xtick_11">
     <g id="line2d_22">
      <path d="M 280.550059 195.829605 
L 280.550059 8.435326 
" style="fill:none;stroke:#000000;stroke-linecap:square;stroke-width:0.5;"/>
     </g>
     <g id="line2d_23">
      <g>
       <use style="stroke:#000000;stroke-width:0.5;" x="280.550059172" xlink:href="#mb5a025ff3b" y="32.059818787"/>
      </g>
     </g>
     <g id="text_10">
      <!-- 8 -->
      <defs>
       <path d="M 31.78125 34.625 
Q 24.75 34.625 20.71875 30.859375 
Q 16.703125 27.09375 16.703125 20.515625 
Q 16.703125 13.921875 20.71875 10.15625 
Q 24.75 6.390625 31.78125 6.390625 
Q 38.8125 6.390625 42.859375 10.171875 
Q 46.921875 13.96875 46.921875 20.515625 
Q 46.921875 27.09375 42.890625 30.859375 
Q 38.875 34.625 31.78125 34.625 
M 21.921875 38.8125 
Q 15.578125 40.375 12.03125 44.71875 
Q 8.5 49.078125 8.5 55.328125 
Q 8.5 64.0625 14.71875 69.140625 
Q 20.953125 74.21875 31.78125 74.21875 
Q 42.671875 74.21875 48.875 69.140625 
Q 55.078125 64.0625 55.078125 55.328125 
Q 55.078125 49.078125 51.53125 44.71875 
Q 48 40.375 41.703125 38.8125 
Q 48.828125 37.15625 52.796875 32.3125 
Q 56.78125 27.484375 56.78125 20.515625 
Q 56.78125 9.90625 50.3125 4.234375 
Q 43.84375 -1.421875 31.78125 -1.421875 
Q 19.734375 -1.421875 13.25 4.234375 
Q 6.78125 9.90625 6.78125 20.515625 
Q 6.78125 27.484375 10.78125 32.3125 
Q 14.796875 37.15625 21.921875 38.8125 
M 18.3125 54.390625 
Q 18.3125 48.734375 21.84375 45.5625 
Q 25.390625 42.390625 31.78125 42.390625 
Q 38.140625 42.390625 41.71875 45.5625 
Q 45.3125 48.734375 45.3125 54.390625 
Q 45.3125 60.0625 41.71875 63.234375 
Q 38.140625 66.40625 31.78125 66.40625 
Q 25.390625 66.40625 21.84375 63.234375 
Q 18.3125 60.0625 18.3125 54.390625 
" id="BitstreamVeraSans-Roman-38"/>
      </defs>
      <g transform="translate(277.368809172 43.658256287)scale(0.1 -0.1)">
       <use xlink:href="#BitstreamVeraSans-Roman-38"/>
      </g>
     </g>
    </g>
    <g id="xtick_12">
     <g id="line2d_24">
      <path d="M 307.244401 195.829605 
L 307.244401 8.435326 
" style="fill:none;stroke:#000000;stroke-linecap:square;stroke-width:0.5;"/>
     </g>
     <g id="line2d_25">
      <g>
       <use style="stroke:#000000;stroke-width:0.5;" x="307.244400888" xlink:href="#mb5a025ff3b" y="32.059818787"/>
      </g>
     </g>
     <g id="text_11">
      <!-- 9 -->
      <defs>
       <path d="M 10.984375 1.515625 
L 10.984375 10.5 
Q 14.703125 8.734375 18.5 7.8125 
Q 22.3125 6.890625 25.984375 6.890625 
Q 35.75 6.890625 40.890625 13.453125 
Q 46.046875 20.015625 46.78125 33.40625 
Q 43.953125 29.203125 39.59375 26.953125 
Q 35.25 24.703125 29.984375 24.703125 
Q 19.046875 24.703125 12.671875 31.3125 
Q 6.296875 37.9375 6.296875 49.421875 
Q 6.296875 60.640625 12.9375 67.421875 
Q 19.578125 74.21875 30.609375 74.21875 
Q 43.265625 74.21875 49.921875 64.515625 
Q 56.59375 54.828125 56.59375 36.375 
Q 56.59375 19.140625 48.40625 8.859375 
Q 40.234375 -1.421875 26.421875 -1.421875 
Q 22.703125 -1.421875 18.890625 -0.6875 
Q 15.09375 0.046875 10.984375 1.515625 
M 30.609375 32.421875 
Q 37.25 32.421875 41.125 36.953125 
Q 45.015625 41.5 45.015625 49.421875 
Q 45.015625 57.28125 41.125 61.84375 
Q 37.25 66.40625 30.609375 66.40625 
Q 23.96875 66.40625 20.09375 61.84375 
Q 16.21875 57.28125 16.21875 49.421875 
Q 16.21875 41.5 20.09375 36.953125 
Q 23.96875 32.421875 30.609375 32.421875 
" id="BitstreamVeraSans-Roman-39"/>
      </defs>
      <g transform="translate(304.063150888 43.658256287)scale(0.1 -0.1)">
       <use xlink:href="#BitstreamVeraSans-Roman-39"/>
      </g>
     </g>
    </g>
    <g id="xtick_13">
     <g id="line2d_26">
      <path d="M 333.938743 195.829605 
L 333.938743 8.435326 
" style="fill:none;stroke:#000000;stroke-linecap:square;stroke-width:0.5;"/>
     </g>
     <g id="line2d_27">
      <g>
       <use style="stroke:#000000;stroke-width:0.5;" x="333.938742604" xlink:href="#mb5a025ff3b" y="32.059818787"/>
      </g>
     </g>
     <g id="text_12">
      <!-- 10 -->
      <defs>
       <path d="M 31.78125 66.40625 
Q 24.171875 66.40625 20.328125 58.90625 
Q 16.5 51.421875 16.5 36.375 
Q 16.5 21.390625 20.328125 13.890625 
Q 24.171875 6.390625 31.78125 6.390625 
Q 39.453125 6.390625 43.28125 13.890625 
Q 47.125 21.390625 47.125 36.375 
Q 47.125 51.421875 43.28125 58.90625 
Q 39.453125 66.40625 31.78125 66.40625 
M 31.78125 74.21875 
Q 44.046875 74.21875 50.515625 64.515625 
Q 56.984375 54.828125 56.984375 36.375 
Q 56.984375 17.96875 50.515625 8.265625 
Q 44.046875 -1.421875 31.78125 -1.421875 
Q 19.53125 -1.421875 13.0625 8.265625 
Q 6.59375 17.96875 6.59375 36.375 
Q 6.59375 54.828125 13.0625 64.515625 
Q 19.53125 74.21875 31.78125 74.21875 
" id="BitstreamVeraSans-Roman-30"/>
      </defs>
      <g transform="translate(327.576242604 43.658256287)scale(0.1 -0.1)">
       <use xlink:href="#BitstreamVeraSans-Roman-31"/>
       <use x="63.623046875" xlink:href="#BitstreamVeraSans-Roman-30"/>
      </g>
     </g>
    </g>
    <g id="xtick_14">
     <g id="line2d_28">
      <defs>
       <path d="M 0 0 
L 0 -2 
" id="md1ea2d20d8" style="stroke:#000000;stroke-width:0.5;"/>
      </defs>
      <g>
       <use style="stroke:#000000;stroke-width:0.5;" x="8.26777366864" xlink:href="#md1ea2d20d8" y="32.059818787"/>
      </g>
     </g>
    </g>
    <g id="xtick_15">
     <g id="line2d_29">
      <g>
       <use style="stroke:#000000;stroke-width:0.5;" x="18.945510355" xlink:href="#md1ea2d20d8" y="32.059818787"/>
      </g>
     </g>
    </g>
    <g id="xtick_16">
     <g id="line2d_30">
      <g>
       <use style="stroke:#000000;stroke-width:0.5;" x="24.2843786982" xlink:href="#md1ea2d20d8" y="32.059818787"/>
      </g>
     </g>
    </g>
    <g id="xtick_17">
     <g id="line2d_31">
      <g>
       <use style="stroke:#000000;stroke-width:0.5;" x="29.6232470414" xlink:href="#md1ea2d20d8" y="32.059818787"/>
      </g>
     </g>
    </g>
    <g id="xtick_18">
     <g id="line2d_32">
      <g>
       <use style="stroke:#000000;stroke-width:0.5;" x="34.9621153846" xlink:href="#md1ea2d20d8" y="32.059818787"/>
      </g>
     </g>
    </g>
    <g id="xtick_19">
     <g id="line2d_33">
      <g>
       <use style="stroke:#000000;stroke-width:0.5;" x="40.3009837278" xlink:href="#md1ea2d20d8" y="32.059818787"/>
      </g>
     </g>
    </g>
    <g id="xtick_20">
     <g id="line2d_34">
      <g>
       <use style="stroke:#000000;stroke-width:0.5;" x="45.639852071" xlink:href="#md1ea2d20d8" y="32.059818787"/>
      </g>
     </g>
    </g>
    <g id="xtick_21">
     <g id="line2d_35">
      <g>
       <use style="stroke:#000000;stroke-width:0.5;" x="50.9787204142" xlink:href="#md1ea2d20d8" y="32.059818787"/>
      </g>
     </g>
    </g>
    <g id="xtick_22">
     <g id="line2d_36">
      <g>
       <use style="stroke:#000000;stroke-width:0.5;" x="56.3175887574" xlink:href="#md1ea2d20d8" y="32.059818787"/>
      </g>
     </g>
    </g>
    <g id="xtick_23">
     <g id="line2d_37">
      <g>
       <use style="stroke:#000000;stroke-width:0.5;" x="61.6564571006" xlink:href="#md1ea2d20d8" y="32.059818787"/>
      </g>
     </g>
    </g>
    <g id="xtick_24">
     <g id="line2d_38">
      <g>
       <use style="stroke:#000000;stroke-width:0.5;" x="66.9953254438" xlink:href="#md1ea2d20d8" y="32.059818787"/>
      </g>
     </g>
    </g>
    <g id="xtick_25">
     <g id="line2d_39">
      <g>
       <use style="stroke:#000000;stroke-width:0.5;" x="72.334193787" xlink:href="#md1ea2d20d8" y="32.059818787"/>
      </g>
     </g>
    </g>
    <g id="xtick_26">
     <g id="line2d_40">
      <g>
       <use style="stroke:#000000;stroke-width:0.5;" x="77.6730621302" xlink:href="#md1ea2d20d8" y="32.059818787"/>
      </g>
     </g>
    </g>
    <g id="xtick_27">
     <g id="line2d_41">
      <g>
       <use style="stroke:#000000;stroke-width:0.5;" x="83.0119304734" xlink:href="#md1ea2d20d8" y="32.059818787"/>
      </g>
     </g>
    </g>
    <g id="xtick_28">
     <g id="line2d_42">
      <g>
       <use style="stroke:#000000;stroke-width:0.5;" x="88.3507988166" xlink:href="#md1ea2d20d8" y="32.059818787"/>
      </g>
     </g>
    </g>
    <g id="xtick_29">
     <g id="line2d_43">
      <g>
       <use style="stroke:#000000;stroke-width:0.5;" x="93.6896671598" xlink:href="#md1ea2d20d8" y="32.059818787"/>
      </g>
     </g>
    </g>
    <g id="xtick_30">
     <g id="line2d_44">
      <g>
       <use style="stroke:#000000;stroke-width:0.5;" x="99.028535503" xlink:href="#md1ea2d20d8" y="32.059818787"/>
      </g>
     </g>
    </g>
    <g id="xtick_31">
     <g id="line2d_45">
      <g>
       <use style="stroke:#000000;stroke-width:0.5;" x="104.367403846" xlink:href="#md1ea2d20d8" y="32.059818787"/>
      </g>
     </g>
    </g>
    <g id="xtick_32">
     <g id="line2d_46">
      <g>
       <use style="stroke:#000000;stroke-width:0.5;" x="109.706272189" xlink:href="#md1ea2d20d8" y="32.059818787"/>
      </g>
     </g>
    </g>
    <g id="xtick_33">
     <g id="line2d_47">
      <g>
       <use style="stroke:#000000;stroke-width:0.5;" x="115.045140533" xlink:href="#md1ea2d20d8" y="32.059818787"/>
      </g>
     </g>
    </g>
    <g id="xtick_34">
     <g id="line2d_48">
      <g>
       <use style="stroke:#000000;stroke-width:0.5;" x="120.384008876" xlink:href="#md1ea2d20d8" y="32.059818787"/>
      </g>
     </g>
    </g>
    <g id="xtick_35">
     <g id="line2d_49">
      <g>
       <use style="stroke:#000000;stroke-width:0.5;" x="125.722877219" xlink:href="#md1ea2d20d8" y="32.059818787"/>
      </g>
     </g>
    </g>
    <g id="xtick_36">
     <g id="line2d_50">
      <g>
       <use style="stroke:#000000;stroke-width:0.5;" x="131.061745562" xlink:href="#md1ea2d20d8" y="32.059818787"/>
      </g>
     </g>
    </g>
    <g id="xtick_37">
     <g id="line2d_51">
      <g>
       <use style="stroke:#000000;stroke-width:0.5;" x="136.400613905" xlink:href="#md1ea2d20d8" y="32.059818787"/>
      </g>
     </g>
    </g>
    <g id="xtick_38">
     <g id="line2d_52">
      <g>
       <use style="stroke:#000000;stroke-width:0.5;" x="141.739482249" xlink:href="#md1ea2d20d8" y="32.059818787"/>
      </g>
     </g>
    </g>
    <g id="xtick_39">
     <g id="line2d_53">
      <g>
       <use style="stroke:#000000;stroke-width:0.5;" x="147.078350592" xlink:href="#md1ea2d20d8" y="32.059818787"/>
      </g>
     </g>
    </g>
    <g id="xtick_40">
     <g id="line2d_54">
      <g>
       <use style="stroke:#000000;stroke-width:0.5;" x="152.417218935" xlink:href="#md1ea2d20d8" y="32.059818787"/>
      </g>
     </g>
    </g>
    <g id="xtick_41">
     <g id="line2d_55">
      <g>
       <use style="stroke:#000000;stroke-width:0.5;" x="157.756087278" xlink:href="#md1ea2d20d8" y="32.059818787"/>
      </g>
     </g>
    </g>
    <g id="xtick_42">
     <g id="line2d_56">
      <g>
       <use style="stroke:#000000;stroke-width:0.5;" x="163.094955621" xlink:href="#md1ea2d20d8" y="32.059818787"/>
      </g>
     </g>
    </g>
    <g id="xtick_43">
     <g id="line2d_57">
      <g>
       <use style="stroke:#000000;stroke-width:0.5;" x="168.433823964" xlink:href="#md1ea2d20d8" y="32.059818787"/>
      </g>
     </g>
    </g>
    <g id="xtick_44">
     <g id="line2d_58">
      <g>
       <use style="stroke:#000000;stroke-width:0.5;" x="173.772692308" xlink:href="#md1ea2d20d8" y="32.059818787"/>
      </g>
     </g>
    </g>
    <g id="xtick_45">
     <g id="line2d_59">
      <g>
       <use style="stroke:#000000;stroke-width:0.5;" x="179.111560651" xlink:href="#md1ea2d20d8" y="32.059818787"/>
      </g>
     </g>
    </g>
    <g id="xtick_46">
     <g id="line2d_60">
      <g>
       <use style="stroke:#000000;stroke-width:0.5;" x="184.450428994" xlink:href="#md1ea2d20d8" y="32.059818787"/>
      </g>
     </g>
    </g>
    <g id="xtick_47">
     <g id="line2d_61">
      <g>
       <use style="stroke:#000000;stroke-width:0.5;" x="189.789297337" xlink:href="#md1ea2d20d8" y="32.059818787"/>
      </g>
     </g>
    </g>
    <g id="xtick_48">
     <g id="line2d_62">
      <g>
       <use style="stroke:#000000;stroke-width:0.5;" x="195.12816568" xlink:href="#md1ea2d20d8" y="32.059818787"/>
      </g>
     </g>
    </g>
    <g id="xtick_49">
     <g id="line2d_63">
      <g>
       <use style="stroke:#000000;stroke-width:0.5;" x="200.467034024" xlink:href="#md1ea2d20d8" y="32.059818787"/>
      </g>
     </g>
    </g>
    <g id="xtick_50">
     <g id="line2d_64">
      <g>
       <use style="stroke:#000000;stroke-width:0.5;" x="205.805902367" xlink:href="#md1ea2d20d8" y="32.059818787"/>
      </g>
     </g>
    </g>
    <g id="xtick_51">
     <g id="line2d_65">
      <g>
       <use style="stroke:#000000;stroke-width:0.5;" x="211.14477071" xlink:href="#md1ea2d20d8" y="32.059818787"/>
      </g>
     </g>
    </g>
    <g id="xtick_52">
     <g id="line2d_66">
      <g>
       <use style="stroke:#000000;stroke-width:0.5;" x="216.483639053" xlink:href="#md1ea2d20d8" y="32.059818787"/>
      </g>
     </g>
    </g>
    <g id="xtick_53">
     <g id="line2d_67">
      <g>
       <use style="stroke:#000000;stroke-width:0.5;" x="221.822507396" xlink:href="#md1ea2d20d8" y="32.059818787"/>
      </g>
     </g>
    </g>
    <g id="xtick_54">
     <g id="line2d_68">
      <g>
       <use style="stroke:#000000;stroke-width:0.5;" x="227.16137574" xlink:href="#md1ea2d20d8" y="32.059818787"/>
      </g>
     </g>
    </g>
    <g id="xtick_55">
     <g id="line2d_69">
      <g>
       <use style="stroke:#000000;stroke-width:0.5;" x="232.500244083" xlink:href="#md1ea2d20d8" y="32.059818787"/>
      </g>
     </g>
    </g>
    <g id="xtick_56">
     <g id="line2d_70">
      <g>
       <use style="stroke:#000000;stroke-width:0.5;" x="237.839112426" xlink:href="#md1ea2d20d8" y="32.059818787"/>
      </g>
     </g>
    </g>
    <g id="xtick_57">
     <g id="line2d_71">
      <g>
       <use style="stroke:#000000;stroke-width:0.5;" x="243.177980769" xlink:href="#md1ea2d20d8" y="32.059818787"/>
      </g>
     </g>
    </g>
    <g id="xtick_58">
     <g id="line2d_72">
      <g>
       <use style="stroke:#000000;stroke-width:0.5;" x="248.516849112" xlink:href="#md1ea2d20d8" y="32.059818787"/>
      </g>
     </g>
    </g>
    <g id="xtick_59">
     <g id="line2d_73">
      <g>
       <use style="stroke:#000000;stroke-width:0.5;" x="253.855717456" xlink:href="#md1ea2d20d8" y="32.059818787"/>
      </g>
     </g>
    </g>
    <g id="xtick_60">
     <g id="line2d_74">
      <g>
       <use style="stroke:#000000;stroke-width:0.5;" x="259.194585799" xlink:href="#md1ea2d20d8" y="32.059818787"/>
      </g>
     </g>
    </g>
    <g id="xtick_61">
     <g id="line2d_75">
      <g>
       <use style="stroke:#000000;stroke-width:0.5;" x="264.533454142" xlink:href="#md1ea2d20d8" y="32.059818787"/>
      </g>
     </g>
    </g>
    <g id="xtick_62">
     <g id="line2d_76">
      <g>
       <use style="stroke:#000000;stroke-width:0.5;" x="269.872322485" xlink:href="#md1ea2d20d8" y="32.059818787"/>
      </g>
     </g>
    </g>
    <g id="xtick_63">
     <g id="line2d_77">
      <g>
       <use style="stroke:#000000;stroke-width:0.5;" x="275.211190828" xlink:href="#md1ea2d20d8" y="32.059818787"/>
      </g>
     </g>
    </g>
    <g id="xtick_64">
     <g id="line2d_78">
      <g>
       <use style="stroke:#000000;stroke-width:0.5;" x="280.550059172" xlink:href="#md1ea2d20d8" y="32.059818787"/>
      </g>
     </g>
    </g>
    <g id="xtick_65">
     <g id="line2d_79">
      <g>
       <use style="stroke:#000000;stroke-width:0.5;" x="285.888927515" xlink:href="#md1ea2d20d8" y="32.059818787"/>
      </g>
     </g>
    </g>
    <g id="xtick_66">
     <g id="line2d_80">
      <g>
       <use style="stroke:#000000;stroke-width:0.5;" x="291.227795858" xlink:href="#md1ea2d20d8" y="32.059818787"/>
      </g>
     </g>
    </g>
    <g id="xtick_67">
     <g id="line2d_81">
      <g>
       <use style="stroke:#000000;stroke-width:0.5;" x="296.566664201" xlink:href="#md1ea2d20d8" y="32.059818787"/>
      </g>
     </g>
    </g>
    <g id="xtick_68">
     <g id="line2d_82">
      <g>
       <use style="stroke:#000000;stroke-width:0.5;" x="301.905532544" xlink:href="#md1ea2d20d8" y="32.059818787"/>
      </g>
     </g>
    </g>
    <g id="xtick_69">
     <g id="line2d_83">
      <g>
       <use style="stroke:#000000;stroke-width:0.5;" x="307.244400888" xlink:href="#md1ea2d20d8" y="32.059818787"/>
      </g>
     </g>
    </g>
    <g id="xtick_70">
     <g id="line2d_84">
      <g>
       <use style="stroke:#000000;stroke-width:0.5;" x="312.583269231" xlink:href="#md1ea2d20d8" y="32.059818787"/>
      </g>
     </g>
    </g>
    <g id="xtick_71">
     <g id="line2d_85">
      <g>
       <use style="stroke:#000000;stroke-width:0.5;" x="317.922137574" xlink:href="#md1ea2d20d8" y="32.059818787"/>
      </g>
     </g>
    </g>
    <g id="xtick_72">
     <g id="line2d_86">
      <g>
       <use style="stroke:#000000;stroke-width:0.5;" x="323.261005917" xlink:href="#md1ea2d20d8" y="32.059818787"/>
      </g>
     </g>
    </g>
    <g id="xtick_73">
     <g id="line2d_87">
      <g>
       <use style="stroke:#000000;stroke-width:0.5;" x="328.59987426" xlink:href="#md1ea2d20d8" y="32.059818787"/>
      </g>
     </g>
    </g>
    <g id="xtick_74">
     <g id="line2d_88">
      <g>
       <use style="stroke:#000000;stroke-width:0.5;" x="333.938742604" xlink:href="#md1ea2d20d8" y="32.059818787"/>
      </g>
     </g>
    </g>
    <g id="xtick_75">
     <g id="line2d_89">
      <g>
       <use style="stroke:#000000;stroke-width:0.5;" x="339.277610947" xlink:href="#md1ea2d20d8" y="32.059818787"/>
      </g>
     </g>
    </g>
   </g>
   <g id="matplotlib.axis_2">
    <g id="ytick_1">
     <g id="line2d_90">
      <path d="M 7.2 192.225869 
L 340.345385 192.225869 
" style="fill:none;stroke:#000000;stroke-linecap:square;stroke-width:0.5;"/>
     </g>
     <g id="line2d_91">
      <defs>
       <path d="M 0 0 
L 4 0 
" id="m3b2d8e8d9a" style="stroke:#000000;stroke-width:0.5;"/>
      </defs>
      <g>
       <use style="stroke:#000000;stroke-width:0.5;" x="66.9953254438" xlink:href="#m3b2d8e8d9a" y="192.225869083"/>
      </g>
     </g>
     <g id="text_13">
      <!-- -8 -->
      <g transform="translate(53.0250129438 194.985244083)scale(0.1 -0.1)">
       <use xlink:href="#BitstreamVeraSans-Roman-2d"/>
       <use x="36.083984375" xlink:href="#BitstreamVeraSans-Roman-38"/>
      </g>
     </g>
    </g>
    <g id="ytick_2">
     <g id="line2d_92">
      <path d="M 7.2 172.205113 
L 340.345385 172.205113 
" style="fill:none;stroke:#000000;stroke-linecap:square;stroke-width:0.5;"/>
     </g>
     <g id="line2d_93">
      <g>
       <use style="stroke:#000000;stroke-width:0.5;" x="66.9953254438" xlink:href="#m3b2d8e8d9a" y="172.205112796"/>
      </g>
     </g>
     <g id="text_14">
      <!-- -7 -->
      <g transform="translate(53.0250129438 174.964487796)scale(0.1 -0.1)">
       <use xlink:href="#BitstreamVeraSans-Roman-2d"/>
       <use x="36.083984375" xlink:href="#BitstreamVeraSans-Roman-37"/>
      </g>
     </g>
    </g>
    <g id="ytick_3">
     <g id="line2d_94">
      <path d="M 7.2 152.184357 
L 340.345385 152.184357 
" style="fill:none;stroke:#000000;stroke-linecap:square;stroke-width:0.5;"/>
     </g>
     <g id="line2d_95">
      <g>
       <use style="stroke:#000000;stroke-width:0.5;" x="66.9953254438" xlink:href="#m3b2d8e8d9a" y="152.184356509"/>
      </g>
     </g>
     <g id="text_15">
      <!-- -6 -->
      <g transform="translate(53.0250129438 154.943731509)scale(0.1 -0.1)">
       <use xlink:href="#BitstreamVeraSans-Roman-2d"/>
       <use x="36.083984375" xlink:href="#BitstreamVeraSans-Roman-36"/>
      </g>
     </g>
    </g>
    <g id="ytick_4">
     <g id="line2d_96">
      <path d="M 7.2 132.1636 
L 340.345385 132.1636 
" style="fill:none;stroke:#000000;stroke-linecap:square;stroke-width:0.5;"/>
     </g>
     <g id="line2d_97">
      <g>
       <use style="stroke:#000000;stroke-width:0.5;" x="66.9953254438" xlink:href="#m3b2d8e8d9a" y="132.163600222"/>
      </g>
     </g>
     <g id="text_16">
      <!-- -5 -->
      <g transform="translate(53.0250129438 134.922975222)scale(0.1 -0.1)">
       <use xlink:href="#BitstreamVeraSans-Roman-2d"/>
       <use x="36.083984375" xlink:href="#BitstreamVeraSans-Roman-35"/>
      </g>
     </g>
    </g>
    <g id="ytick_5">
     <g id="line2d_98">
      <path d="M 7.2 112.142844 
L 340.345385 112.142844 
" style="fill:none;stroke:#000000;stroke-linecap:square;stroke-width:0.5;"/>
     </g>
     <g id="line2d_99">
      <g>
       <use style="stroke:#000000;stroke-width:0.5;" x="66.9953254438" xlink:href="#m3b2d8e8d9a" y="112.142843935"/>
      </g>
     </g>
     <g id="text_17">
      <!-- -4 -->
      <g transform="translate(53.0250129438 114.902218935)scale(0.1 -0.1)">
       <use xlink:href="#BitstreamVeraSans-Roman-2d"/>
       <use x="36.083984375" xlink:href="#BitstreamVeraSans-Roman-34"/>
      </g>
     </g>
    </g>
    <g id="ytick_6">
     <g id="line2d_100">
      <path d="M 7.2 92.122088 
L 340.345385 92.122088 
" style="fill:none;stroke:#000000;stroke-linecap:square;stroke-width:0.5;"/>
     </g>
     <g id="line2d_101">
      <g>
       <use style="stroke:#000000;stroke-width:0.5;" x="66.9953254438" xlink:href="#m3b2d8e8d9a" y="92.1220876479"/>
      </g>
     </g>
     <g id="text_18">
      <!-- -3 -->
      <g transform="translate(53.0250129438 94.8814626479)scale(0.1 -0.1)">
       <use xlink:href="#BitstreamVeraSans-Roman-2d"/>
       <use x="36.083984375" xlink:href="#BitstreamVeraSans-Roman-33"/>
      </g>
     </g>
    </g>
    <g id="ytick_7">
     <g id="line2d_102">
      <path d="M 7.2 72.101331 
L 340.345385 72.101331 
" style="fill:none;stroke:#000000;stroke-linecap:square;stroke-width:0.5;"/>
     </g>
     <g id="line2d_103">
      <g>
       <use style="stroke:#000000;stroke-width:0.5;" x="66.9953254438" xlink:href="#m3b2d8e8d9a" y="72.1013313609"/>
      </g>
     </g>
     <g id="text_19">
      <!-- -2 -->
      <g transform="translate(53.0250129438 74.8607063609)scale(0.1 -0.1)">
       <use xlink:href="#BitstreamVeraSans-Roman-2d"/>
       <use x="36.083984375" xlink:href="#BitstreamVeraSans-Roman-32"/>
      </g>
     </g>
    </g>
    <g id="ytick_8">
     <g id="line2d_104">
      <path d="M 7.2 52.080575 
L 340.345385 52.080575 
" style="fill:none;stroke:#000000;stroke-linecap:square;stroke-width:0.5;"/>
     </g>
     <g id="line2d_105">
      <g>
       <use style="stroke:#000000;stroke-width:0.5;" x="66.9953254438" xlink:href="#m3b2d8e8d9a" y="52.080575074"/>
      </g>
     </g>
     <g id="text_20">
      <!-- -1 -->
      <g transform="translate(53.0250129438 54.839950074)scale(0.1 -0.1)">
       <use xlink:href="#BitstreamVeraSans-Roman-2d"/>
       <use x="36.083984375" xlink:href="#BitstreamVeraSans-Roman-31"/>
      </g>
     </g>
    </g>
    <g id="ytick_9">
     <g id="line2d_106">
      <path d="M 7.2 32.059819 
L 340.345385 32.059819 
" style="fill:none;stroke:#000000;stroke-linecap:square;stroke-width:0.5;"/>
     </g>
     <g id="line2d_107">
      <g>
       <use style="stroke:#000000;stroke-width:0.5;" x="66.9953254438" xlink:href="#m3b2d8e8d9a" y="32.059818787"/>
      </g>
     </g>
    </g>
    <g id="ytick_10">
     <g id="line2d_108">
      <path d="M 7.2 12.039062 
L 340.345385 12.039062 
" style="fill:none;stroke:#000000;stroke-linecap:square;stroke-width:0.5;"/>
     </g>
     <g id="line2d_109">
      <g>
       <use style="stroke:#000000;stroke-width:0.5;" x="66.9953254438" xlink:href="#m3b2d8e8d9a" y="12.0390625"/>
      </g>
     </g>
     <g id="text_21">
      <!-- 1 -->
      <g transform="translate(56.6328254438 14.7984375)scale(0.1 -0.1)">
       <use xlink:href="#BitstreamVeraSans-Roman-31"/>
      </g>
     </g>
    </g>
    <g id="ytick_11">
     <g id="line2d_110">
      <defs>
       <path d="M 0 0 
L 2 0 
" id="mbb3bd357df" style="stroke:#000000;stroke-width:0.5;"/>
      </defs>
      <g>
       <use style="stroke:#000000;stroke-width:0.5;" x="66.9953254438" xlink:href="#mbb3bd357df" y="188.221717825"/>
      </g>
     </g>
    </g>
    <g id="ytick_12">
     <g id="line2d_111">
      <g>
       <use style="stroke:#000000;stroke-width:0.5;" x="66.9953254438" xlink:href="#mbb3bd357df" y="184.217566568"/>
      </g>
     </g>
    </g>
    <g id="ytick_13">
     <g id="line2d_112">
      <g>
       <use style="stroke:#000000;stroke-width:0.5;" x="66.9953254438" xlink:href="#mbb3bd357df" y="180.213415311"/>
      </g>
     </g>
    </g>
    <g id="ytick_14">
     <g id="line2d_113">
      <g>
       <use style="stroke:#000000;stroke-width:0.5;" x="66.9953254438" xlink:href="#mbb3bd357df" y="176.209264053"/>
      </g>
     </g>
    </g>
    <g id="ytick_15">
     <g id="line2d_114">
      <g>
       <use style="stroke:#000000;stroke-width:0.5;" x="66.9953254438" xlink:href="#mbb3bd357df" y="168.200961538"/>
      </g>
     </g>
    </g>
    <g id="ytick_16">
     <g id="line2d_115">
      <g>
       <use style="stroke:#000000;stroke-width:0.5;" x="66.9953254438" xlink:href="#mbb3bd357df" y="164.196810281"/>
      </g>
     </g>
    </g>
    <g id="ytick_17">
     <g id="line2d_116">
      <g>
       <use style="stroke:#000000;stroke-width:0.5;" x="66.9953254438" xlink:href="#mbb3bd357df" y="160.192659024"/>
      </g>
     </g>
    </g>
    <g id="ytick_18">
     <g id="line2d_117">
      <g>
       <use style="stroke:#000000;stroke-width:0.5;" x="66.9953254438" xlink:href="#mbb3bd357df" y="156.188507766"/>
      </g>
     </g>
    </g>
    <g id="ytick_19">
     <g id="line2d_118">
      <g>
       <use style="stroke:#000000;stroke-width:0.5;" x="66.9953254438" xlink:href="#mbb3bd357df" y="148.180205251"/>
      </g>
     </g>
    </g>
    <g id="ytick_20">
     <g id="line2d_119">
      <g>
       <use style="stroke:#000000;stroke-width:0.5;" x="66.9953254438" xlink:href="#mbb3bd357df" y="144.176053994"/>
      </g>
     </g>
    </g>
    <g id="ytick_21">
     <g id="line2d_120">
      <g>
       <use style="stroke:#000000;stroke-width:0.5;" x="66.9953254438" xlink:href="#mbb3bd357df" y="140.171902737"/>
      </g>
     </g>
    </g>
    <g id="ytick_22">
     <g id="line2d_121">
      <g>
       <use style="stroke:#000000;stroke-width:0.5;" x="66.9953254438" xlink:href="#mbb3bd357df" y="136.167751479"/>
      </g>
     </g>
    </g>
    <g id="ytick_23">
     <g id="line2d_122">
      <g>
       <use style="stroke:#000000;stroke-width:0.5;" x="66.9953254438" xlink:href="#mbb3bd357df" y="132.163600222"/>
      </g>
     </g>
    </g>
    <g id="ytick_24">
     <g id="line2d_123">
      <g>
       <use style="stroke:#000000;stroke-width:0.5;" x="66.9953254438" xlink:href="#mbb3bd357df" y="128.159448964"/>
      </g>
     </g>
    </g>
    <g id="ytick_25">
     <g id="line2d_124">
      <g>
       <use style="stroke:#000000;stroke-width:0.5;" x="66.9953254438" xlink:href="#mbb3bd357df" y="124.155297707"/>
      </g>
     </g>
    </g>
    <g id="ytick_26">
     <g id="line2d_125">
      <g>
       <use style="stroke:#000000;stroke-width:0.5;" x="66.9953254438" xlink:href="#mbb3bd357df" y="120.15114645"/>
      </g>
     </g>
    </g>
    <g id="ytick_27">
     <g id="line2d_126">
      <g>
       <use style="stroke:#000000;stroke-width:0.5;" x="66.9953254438" xlink:href="#mbb3bd357df" y="116.146995192"/>
      </g>
     </g>
    </g>
    <g id="ytick_28">
     <g id="line2d_127">
      <g>
       <use style="stroke:#000000;stroke-width:0.5;" x="66.9953254438" xlink:href="#mbb3bd357df" y="112.142843935"/>
      </g>
     </g>
    </g>
    <g id="ytick_29">
     <g id="line2d_128">
      <g>
       <use style="stroke:#000000;stroke-width:0.5;" x="66.9953254438" xlink:href="#mbb3bd357df" y="108.138692678"/>
      </g>
     </g>
    </g>
    <g id="ytick_30">
     <g id="line2d_129">
      <g>
       <use style="stroke:#000000;stroke-width:0.5;" x="66.9953254438" xlink:href="#mbb3bd357df" y="104.13454142"/>
      </g>
     </g>
    </g>
    <g id="ytick_31">
     <g id="line2d_130">
      <g>
       <use style="stroke:#000000;stroke-width:0.5;" x="66.9953254438" xlink:href="#mbb3bd357df" y="100.130390163"/>
      </g>
     </g>
    </g>
    <g id="ytick_32">
     <g id="line2d_131">
      <g>
       <use style="stroke:#000000;stroke-width:0.5;" x="66.9953254438" xlink:href="#mbb3bd357df" y="96.1262389053"/>
      </g>
     </g>
    </g>
    <g id="ytick_33">
     <g id="line2d_132">
      <g>
       <use style="stroke:#000000;stroke-width:0.5;" x="66.9953254438" xlink:href="#mbb3bd357df" y="92.1220876479"/>
      </g>
     </g>
    </g>
    <g id="ytick_34">
     <g id="line2d_133">
      <g>
       <use style="stroke:#000000;stroke-width:0.5;" x="66.9953254438" xlink:href="#mbb3bd357df" y="88.1179363905"/>
      </g>
     </g>
    </g>
    <g id="ytick_35">
     <g id="line2d_134">
      <g>
       <use style="stroke:#000000;stroke-width:0.5;" x="66.9953254438" xlink:href="#mbb3bd357df" y="84.1137851331"/>
      </g>
     </g>
    </g>
    <g id="ytick_36">
     <g id="line2d_135">
      <g>
       <use style="stroke:#000000;stroke-width:0.5;" x="66.9953254438" xlink:href="#mbb3bd357df" y="80.1096338757"/>
      </g>
     </g>
    </g>
    <g id="ytick_37">
     <g id="line2d_136">
      <g>
       <use style="stroke:#000000;stroke-width:0.5;" x="66.9953254438" xlink:href="#mbb3bd357df" y="76.1054826183"/>
      </g>
     </g>
    </g>
    <g id="ytick_38">
     <g id="line2d_137">
      <g>
       <use style="stroke:#000000;stroke-width:0.5;" x="66.9953254438" xlink:href="#mbb3bd357df" y="72.1013313609"/>
      </g>
     </g>
    </g>
    <g id="ytick_39">
     <g id="line2d_138">
      <g>
       <use style="stroke:#000000;stroke-width:0.5;" x="66.9953254438" xlink:href="#mbb3bd357df" y="68.0971801036"/>
      </g>
     </g>
    </g>
    <g id="ytick_40">
     <g id="line2d_139">
      <g>
       <use style="stroke:#000000;stroke-width:0.5;" x="66.9953254438" xlink:href="#mbb3bd357df" y="64.0930288462"/>
      </g>
     </g>
    </g>
    <g id="ytick_41">
     <g id="line2d_140">
      <g>
       <use style="stroke:#000000;stroke-width:0.5;" x="66.9953254438" xlink:href="#mbb3bd357df" y="60.0888775888"/>
      </g>
     </g>
    </g>
    <g id="ytick_42">
     <g id="line2d_141">
      <g>
       <use style="stroke:#000000;stroke-width:0.5;" x="66.9953254438" xlink:href="#mbb3bd357df" y="56.0847263314"/>
      </g>
     </g>
    </g>
    <g id="ytick_43">
     <g id="line2d_142">
      <g>
       <use style="stroke:#000000;stroke-width:0.5;" x="66.9953254438" xlink:href="#mbb3bd357df" y="52.080575074"/>
      </g>
     </g>
    </g>
    <g id="ytick_44">
     <g id="line2d_143">
      <g>
       <use style="stroke:#000000;stroke-width:0.5;" x="66.9953254438" xlink:href="#mbb3bd357df" y="48.0764238166"/>
      </g>
     </g>
    </g>
    <g id="ytick_45">
     <g id="line2d_144">
      <g>
       <use style="stroke:#000000;stroke-width:0.5;" x="66.9953254438" xlink:href="#mbb3bd357df" y="44.0722725592"/>
      </g>
     </g>
    </g>
    <g id="ytick_46">
     <g id="line2d_145">
      <g>
       <use style="stroke:#000000;stroke-width:0.5;" x="66.9953254438" xlink:href="#mbb3bd357df" y="40.0681213018"/>
      </g>
     </g>
    </g>
    <g id="ytick_47">
     <g id="line2d_146">
      <g>
       <use style="stroke:#000000;stroke-width:0.5;" x="66.9953254438" xlink:href="#mbb3bd357df" y="36.0639700444"/>
      </g>
     </g>
    </g>
    <g id="ytick_48">
     <g id="line2d_147">
      <g>
       <use style="stroke:#000000;stroke-width:0.5;" x="66.9953254438" xlink:href="#mbb3bd357df" y="32.059818787"/>
      </g>
     </g>
    </g>
    <g id="ytick_49">
     <g id="line2d_148">
      <g>
       <use style="stroke:#000000;stroke-width:0.5;" x="66.9953254438" xlink:href="#mbb3bd357df" y="28.0556675296"/>
      </g>
     </g>
    </g>
    <g id="ytick_50">
     <g id="line2d_149">
      <g>
       <use style="stroke:#000000;stroke-width:0.5;" x="66.9953254438" xlink:href="#mbb3bd357df" y="24.0515162722"/>
      </g>
     </g>
    </g>
    <g id="ytick_51">
     <g id="line2d_150">
      <g>
       <use style="stroke:#000000;stroke-width:0.5;" x="66.9953254438" xlink:href="#mbb3bd357df" y="20.0473650148"/>
      </g>
     </g>
    </g>
    <g id="ytick_52">
     <g id="line2d_151">
      <g>
       <use style="stroke:#000000;stroke-width:0.5;" x="66.9953254438" xlink:href="#mbb3bd357df" y="16.0432137574"/>
      </g>
     </g>
    </g>
    <g id="ytick_53">
     <g id="line2d_152">
      <g>
       <use style="stroke:#000000;stroke-width:0.5;" x="66.9953254438" xlink:href="#mbb3bd357df" y="12.0390625"/>
      </g>
     </g>
    </g>
   </g>
  </g>
 </g>
 <defs>
  <clipPath id="p2ccdd35931">
   <rect height="187.394278846" width="333.145384615" x="7.2" y="8.43532636834"/>
  </clipPath>
 </defs>
</svg>
